<?xml version="1.0" encoding="utf-8"?>
<!-- Generator: Adobe Illustrator 22.0.0, SVG Export Plug-In . SVG Version: 6.00 Build 0)  -->
<svg version="1.1" id="Layer_1" xmlns="http://www.w3.org/2000/svg" xmlns:xlink="http://www.w3.org/1999/xlink" x="0px" y="0px"
	 viewBox="0 0 40 40" style="enable-background:new 0 0 40 40;" xml:space="preserve">
<style type="text/css">
	.st0{fill:#4EC2C8;}
	.st1{fill:#EF6868;}
</style>
<g>
	<path class="st0" d="M15,1.4l19,16.8c1.8,1.5,3.1,3.1,3.9,4.6c0.8,1.5,1.2,3.2,1.2,5.1c0,2.3-0.6,4.4-1.8,6.3
		c-1.2,1.9-2.8,3.3-4.9,4.2c-0.6,0.3-1.1,0.4-1.5,0.5c-0.6,0.1-1.1,0.3-1.7,0.3c-0.6,0.1-1.4,0.1-2.3,0.1c-2.4-1.8-4.1-3.1-5.2-3.9
		c-1-0.8-2.2-1.7-3.6-2.8c-2.3-1.8-4.4-3.7-6.6-5.6c-2.1-1.8-3.7-3.5-4.9-4.9c-1.2-1.4-2-2.6-2.6-3.6c-0.4-0.9-0.7-1.8-0.9-2.8
		c-0.2-1-0.4-2-0.4-2.9c0-2.5,0.6-4.6,1.8-6.4c1.2-1.8,2.8-3.2,4.9-4.1C10.2,2,11,1.7,11.9,1.6C12.6,1.5,13.7,1.4,15,1.4z"/>
	<polygon class="st1" points="2.9,39.3 2.9,23.3 21.8,39.3 	"/>
	<polygon class="st1" points="36.9,16.6 19.5,1.1 36.9,1.1 	"/>
</g>
</svg>
